<?xml version="1.0" encoding="utf-8"?>
<svg version="1.1" xmlns:xlink="http://www.w3.org/1999/xlink" width="681px" height="291px" xmlns="http://www.w3.org/2000/svg">
  <g transform="matrix(1 0 0 1 -461 -3552 )">
    <path d="M 461 3552  L 1142 3552  L 1142 3843  L 461 3843  L 461 3552  " fill-rule="nonzero" fill="#cccccc" stroke="none" />
    <path d="M 481 3572  L 1122 3572  L 1122 3823  L 481 3823  L 481 3572  " fill-rule="nonzero" fill="#ffffff" stroke="none" />
    <path d="M 836.945 3639.3  C 824.723 3639.3  815.12 3629.697  815.12 3617.475  C 815.12 3605.253  824.723 3595.65  836.945 3595.65  C 849.167 3595.65  858.77 3605.253  858.77 3617.475  C 858.77 3629.697  849.167 3639.3  836.945 3639.3  " fill-rule="nonzero" fill="#cccccc" stroke="none" />
    <path d="M 489 3816  L 489 3686.2  L 645.5 3627.2  L 864.6 3755.49251101322  L 989.8 3662.6  L 1115 3755.49251101322  L 1115 3816  L 489 3816  " fill-rule="nonzero" fill="#169bd5" stroke="none" />
  </g>
</svg>